HIERARCHY
ROOT Hips
{
  OFFSET 1.44925e-005 102.336 -0.101585
  CHANNELS 6 Xposition Yposition Zposition Zrotation Xrotation Yrotation
  JOINT LeftUpLeg
  {
    OFFSET 8.9458 -8.66707 0.101652
    CHANNELS 3 Zrotation Xrotation Yrotation
    JOINT LeftLeg
    {
      OFFSET 0 -44.4227 1.3727
      CHANNELS 3 Zrotation Xrotation Yrotation
      JOINT LeftFoot
      {
        OFFSET -0.253549 -42.0924 -1.46059
        CHANNELS 3 Zrotation Xrotation Yrotation
        JOINT LeftToes
        {
          OFFSET -0.04 -4.41509 8.4991
          CHANNELS 3 Zrotation Xrotation Yrotation
          End Site
          {
            OFFSET 0.08 -0.047448 9.77979
          }
        }
      }
    }
  }
  JOINT Spine
  {
    OFFSET 0 11.8905 0
    CHANNELS 3 Zrotation Xrotation Yrotation
    JOINT Spine1
    {
      OFFSET 0 25.6574 0.127663
      CHANNELS 3 Zrotation Xrotation Yrotation
      JOINT RightShoulder
      {
        OFFSET -8.99 -0.362252 -0.22
        CHANNELS 3 Zrotation Xrotation Yrotation
        JOINT RightArm
        {
          OFFSET -10.2827 -0.00338 0.322123
          CHANNELS 3 Zrotation Xrotation Yrotation
          JOINT RightForeArm
          {
            OFFSET -26.364 0.099144 -1.42434
            CHANNELS 3 Zrotation Xrotation Yrotation
            JOINT RightHand
            {
              OFFSET -22.0324 0.085362 1.02216
              CHANNELS 3 Zrotation Xrotation Yrotation
              End Site
              {
                OFFSET -13.3284 -0.6 1.50291
              }
            }
          }
        }
      }
      JOINT LeftShoulder1
      {
        OFFSET 8.99 -0.362252 -0.22
        CHANNELS 3 Zrotation Xrotation Yrotation
        JOINT LeftArm
        {
          OFFSET 10.2827 -0.00337999 0.322123
          CHANNELS 3 Zrotation Xrotation Yrotation
          JOINT LeftForeArm
          {
            OFFSET 26.2597 0.099144 -1.42434
            CHANNELS 3 Zrotation Xrotation Yrotation
            JOINT LeftHand
            {
              OFFSET 22.0902 0.085362 1.02216
              CHANNELS 3 Zrotation Xrotation Yrotation
              End Site
              {
                OFFSET 13.419 -0.6 1.50291
              }
            }
          }
        }
      }
      JOINT Head
      {
        OFFSET 0 8.73416 0.011341
        CHANNELS 3 Zrotation Xrotation Yrotation
        End Site
        {
          OFFSET -0.29 12.7742 2.51395
        }
      }
    }
  }
  JOINT RightUpLeg
  {
    OFFSET -8.9458 -8.66707 0.101652
    CHANNELS 3 Zrotation Xrotation Yrotation
    JOINT RightLeg
    {
      OFFSET 0 -44.4227 1.3727
      CHANNELS 3 Zrotation Xrotation Yrotation
      JOINT RightFoot
      {
        OFFSET 0.253549 -42.0924 -1.46059
        CHANNELS 3 Zrotation Xrotation Yrotation
        JOINT RightToes
        {
          OFFSET 0.04 -4.41509 8.4991
          CHANNELS 3 Zrotation Xrotation Yrotation
          End Site
          {
            OFFSET -0.08 -0.137448 9.77979
          }
        }
      }
    }
  }
}
MOTION
Frames:	14
Frame Time:	0.0333333
36.6803 95.5062 4.84077 -6.3743 3.52477 -88.1573 3.2729 14.3974 0.479174 1.26029 42.2328 17.9971 -17.0794 -16.0375 -1.24273 -1.30374e-009 8.75242e-006 -1.47692e-008 3.66097 10.9252 -3.69754 4.94606 0.714604 -3.89806 37.8044 1.77274 0.0335873 38.6729 -28.5866 2.88533 13.7399 49.6821 -6.61224 -9.07877 9.575 -0.944338 -43.0998 3.48539 -3.51738 -29.8819 -4.12152 -22.5533 -4.35948 33.3901 -15.5545 5.82328 9.61819 -0.917488 0.927206 -16.3958 -3.54645 5.1568 -23.6238 -3.23804 -1.0971 31.835 -16.9693 -0.436045 -7.28511 -0.16757 0.0462048 0.000530889 0.662642 
33.2212 95.508 4.21039 -6.72908 4.20489 -87.4815 4.59703 8.84214 -0.360972 1.58534 53.984 18.8022 -12.6442 -6.60565 0.144596 -1.30374e-009 8.75242e-006 -1.47692e-008 5.82036 11.1625 -3.72667 4.14472 0.772731 -3.29352 37.6152 1.77015 0.043544 42.3209 -27.219 11.5533 14.4279 49.3533 -7.15555 -9.751 9.53878 -0.813126 -44.1355 3.57548 -3.53829 -34.9448 -19.6108 -18.3786 -12.9137 47.7709 -2.02397 5.82328 9.61819 -0.917488 1.2794 -16.3133 -4.5625 6.52667 -22.135 -2.73428 -1.15129 34.3465 -18.091 -0.69158 -11.0596 -0.212727 0.0462048 0.000530889 0.662642 
29.9702 95.715 3.67449 -7.16705 4.56833 -86.5476 5.16073 2.95798 -1.71628 2.16661 64.2668 18.6338 -9.60125 -1.84032 0.50001 -1.30374e-009 8.75242e-006 -1.47692e-008 8.05771 11.3157 -3.58166 2.9413 1.00641 -2.41699 37.0728 1.75151 0.0466129 44.928 -25.0455 19.096 13.793 47.3547 -5.05387 -10.8523 9.45303 -0.318395 -44.8694 3.62245 -3.519 -35.0297 -25.2047 -13.6027 -19.4203 51.8368 9.44065 5.82328 9.61819 -0.917488 1.40749 -15.9245 -6.28551 7.2905 -20.0455 -3.10657 -1.19995 35.5423 -18.824 -0.165552 -13.6721 -0.220605 0.0462048 0.000530889 0.662642 
26.6722 96.3168 3.21723 -7.62776 4.39154 -86.4473 4.75322 -2.15758 -2.25601 2.98847 71.6113 17.7262 -8.71374 -2.91883 0.363462 -1.30374e-009 8.75242e-006 -1.47692e-008 9.78465 11.1995 -2.94713 0.980035 1.4165 -1.13065 36.4265 1.73221 0.0569973 46 -22.3986 25.8185 12.7386 44.5712 -1.5634 -11.5951 9.3703 0.232737 -45.4022 3.64802 -3.48861 -32.2573 -25.2735 -6.91741 -21.9327 54.0479 13.0702 5.82328 9.61819 -0.917488 1.20935 -15.5064 -8.06704 7.46705 -17.0384 -3.35007 -1.19965 35.111 -18.7241 0.437625 -15.3419 -0.193369 0.0462048 0.000530889 0.662642 
23.3762 97.0784 2.82966 -7.97865 3.73165 -87.1051 3.7694 -6.7874 -2.08274 3.86257 76.011 16.4242 -9.1069 -6.13641 0.142239 -1.30374e-009 8.75242e-006 -1.47692e-008 10.8066 11.057 -2.07255 -1.10927 1.7143 0.259986 35.5705 1.71668 0.0948871 45.9544 -19.5175 31.8837 11.62 41.6865 2.15408 -11.6704 9.34536 0.46017 -45.5637 3.65049 -3.46939 -28.6798 -22.5364 1.27052 -20.8519 56.0717 9.71129 5.82328 9.61819 -0.917488 0.855581 -15.035 -9.33093 7.03921 -13.5995 -3.6383 -1.11629 33.7655 -17.8359 0.73198 -17.0157 -0.173712 0.0462048 0.000530889 0.662642 
20.1629 97.7924 2.50971 -8.19814 2.97841 -87.9236 2.64185 -11.3172 -1.99029 4.3687 77.8942 15.2931 -9.47702 -8.32114 -0.0197017 -1.30374e-009 8.75242e-006 -1.47692e-008 11.6602 11.1081 -1.19401 -3.00861 1.52802 1.61745 34.315 1.68824 0.138403 44.7388 -15.98 36.6936 10.01 37.5944 6.14094 -11.6717 9.3341 0.580535 -45.2732 3.61981 -3.45366 -26.2541 -17.5366 9.2884 -16.6477 54.4035 2.50507 5.82328 9.61819 -0.917488 0.407325 -14.2962 -10.2313 6.24924 -10.2437 -4.22263 -0.800387 32.1703 -16.655 0.79114 -18.4256 -0.168001 0.0462048 0.000530889 0.662642 
17.0121 98.4261 2.24181 -8.41171 2.32815 -88.6765 1.54168 -15.4564 -2.22712 4.14601 77.5334 14.8439 -9.09603 -9.82447 -0.129621 -1.30374e-009 8.75242e-006 -1.47692e-008 12.5698 11.4115 -0.280993 -4.87582 0.875883 2.93954 32.7825 1.63852 0.155409 42.703 -12.6723 40.2432 8.1411 32.538 10.2031 -11.8777 9.29876 0.84239 -44.7521 3.56581 -3.42672 -25.4945 -12.4158 15.9887 -12.898 49.2337 -3.28834 5.82328 9.61819 -0.917488 -0.157947 -13.3068 -11.1021 5.40311 -6.95753 -4.74796 -0.295315 30.4728 -15.6026 0.940181 -19.288 -0.151967 0.0462048 0.000530889 0.662642 
13.9442 98.9121 2.01594 -8.71827 1.7384 -89.2958 0.57039 -18.827 -2.67908 3.38519 75.0972 14.7649 -8.87446 -11.7817 -0.269724 -1.30374e-009 8.75242e-006 -1.47692e-008 13.2915 11.8875 0.556289 -6.61829 0.217122 4.05826 31.3258 1.58525 0.15553 40.0993 -9.97129 43.1103 6.50003 27.1635 13.9517 -11.9665 9.27076 1.08674 -44.2343 3.51131 -3.39733 -24.6735 -10.9725 21.4226 -11.1333 45.9141 -5.77846 5.82328 9.61819 -0.917488 -0.744566 -12.423 -11.9076 4.65173 -3.65266 -5.1034 0.0723844 28.7555 -14.6563 1.3568 -20.1908 -0.103278 0.0462048 0.000530889 0.662642 
10.9444 99.2185 1.82416 -9.05518 1.14181 -89.7335 -0.278925 -21.4012 -3.28788 2.55081 70.7309 14.7087 -9.3628 -13.4344 -0.414489 -1.30374e-009 8.75242e-006 -1.47692e-008 13.6046 12.3024 1.19182 -8.01422 -0.106022 4.82954 30.2184 1.54637 0.159056 37.5049 -8.25799 45.7881 5.38087 22.5467 17.022 -11.9156 9.26577 1.16954 -43.8384 3.47523 -3.38523 -22.6359 -13.23 25.7612 -10.8055 45.8938 -5.62882 5.82328 9.61819 -0.917488 -1.25395 -11.9629 -12.4265 3.97227 -0.348134 -5.40614 0.252616 27.0193 -13.7955 1.77128 -21.3961 -0.0459465 0.0462048 0.000530889 0.662642 
7.99039 99.4559 1.64064 -9.28947 0.556583 -90.1234 -1.08588 -23.2719 -4.02454 1.91238 64.4891 14.9308 -9.8843 -13.7993 -0.471264 -1.30374e-009 8.75242e-006 -1.47692e-008 13.4847 12.5304 1.70187 -9.08396 -0.152911 5.33193 29.5374 1.51921 0.15179 35.5708 -7.72939 48.2275 4.73699 19.3733 19.4212 -12.036 9.25822 1.17662 -43.7189 3.47276 -3.39817 -19.4188 -17.3091 29.2012 -11.6513 47.0977 -3.34049 5.82328 9.61819 -0.917488 -1.70128 -11.881 -12.54 3.32243 2.956 -5.71885 0.395272 24.9473 -13.015 1.86347 -22.3134 -0.025081 0.0462048 0.000530889 0.662642 
5.091 99.6124 1.4518 -9.3765 0.0977621 -90.3569 -1.70214 -24.4295 -4.67503 1.51512 56.5936 15.5865 -10.2821 -13.3903 -0.458101 -1.30374e-009 8.75242e-006 -1.47692e-008 13.0723 12.6311 2.12627 -9.82889 -0.100321 5.65443 29.228 1.50049 0.1303 34.7214 -8.1915 50.2132 4.30972 17.9552 21.3993 -12.2764 9.24392 1.18233 -43.9464 3.50213 -3.4222 -16.5678 -20.4008 31.6204 -12.5394 46.8353 -0.748523 5.82328 9.61819 -0.917488 -2.04967 -11.963 -12.2635 2.79129 6.07751 -6.04966 0.562478 22.7531 -12.3026 1.92229 -22.921 -0.0103417 0.0462048 0.000530889 0.662642 
2.19179 99.5642 1.27511 -9.32842 -0.229471 -90.6792 -1.88903 -24.8244 -4.73862 1.27419 47.5638 16.3252 -10.9457 -13.0159 -0.457665 -1.30374e-009 8.75242e-006 -1.47692e-008 12.5092 12.5697 2.41672 -10.243 0.0490965 5.80423 29.2129 1.49863 0.126542 35.085 -9.20283 51.6957 3.85093 18.3811 23.0879 -12.3784 9.23197 1.2444 -44.2442 3.52735 -3.42732 -15.4862 -21.4716 32.8015 -12.6984 45.6013 0.399417 5.82328 9.61819 -0.917488 -2.13292 -12.1587 -11.7208 2.44475 8.76619 -6.41412 0.685121 21.1034 -11.5801 2.37103 -23.8143 0.0651505 0.0462048 0.000530889 0.662642 
-0.75098 99.4201 1.13286 -9.11322 -0.463151 -91.1933 -1.75468 -24.4545 -3.83438 1.11828 37.7668 16.8246 -11.2583 -12.5305 -0.427309 -1.30374e-009 8.75242e-006 -1.47692e-008 11.7377 12.2479 2.63366 -10.5996 0.404537 5.87805 29.4647 1.51686 0.152527 35.9401 -9.87798 52.5644 3.37112 19.5761 24.4438 -12.4008 9.20779 1.47569 -44.2768 3.51892 -3.4059 -15.9502 -21.5637 33.0428 -12.4684 45.4275 0.101778 5.82328 9.61819 -0.917488 -1.9154 -12.497 -11.0237 2.13345 11.1202 -6.66544 0.639028 19.7786 -10.7551 2.89754 -24.6769 0.158634 0.0462048 0.000530889 0.662642 
-3.73016 99.311 1.05849 -8.7431 -0.732345 -91.9716 -1.54977 -23.465 -2.16421 1.00327 27.7108 17.1711 -10.5566 -11.6707 -0.321102 -1.30374e-009 8.75242e-006 -1.47692e-008 10.7822 11.7618 2.81423 -11.0335 0.87549 5.95152 29.9491 1.54457 0.181038 36.3 -9.46567 52.5914 3.11339 20.162 25.3538 -12.5153 9.17217 1.7636 -44.1808 3.50625 -3.39536 -17.2082 -21.3885 32.6143 -11.9553 45.9459 -1.04649 5.82328 9.61819 -0.917488 -1.62811 -12.8341 -10.1384 1.75518 13.352 -6.69709 0.378797 18.3025 -9.81435 3.12539 -24.9752 0.200435 0.0462048 0.000530889 0.662642 
